<svg width="20" height="20" viewBox="0 0 20 20" fill="none" xmlns="http://www.w3.org/2000/svg">
<path d="M7.08332 14.375L6.24999 16.0417C5.18853 15.5994 4.08936 15.1571 2.92082 14.3958C2.51332 14.1303 2.26624 13.6792 2.25645 13.1929C2.20561 10.6967 2.79124 8.18708 4.27405 5.53375C4.46811 5.18646 4.79145 4.93188 5.16645 4.79875C6.06103 4.48125 6.66832 4.23583 7.70832 4.0625L8.33332 5.20833C8.33332 5.20833 8.95832 5 9.99999 5C11.0417 5 11.6667 5.20833 11.6667 5.20833L12.2917 4.0625C13.3317 4.23583 13.9389 4.48125 14.8335 4.79875C15.2085 4.93188 15.5319 5.18646 15.7259 5.53375C17.2087 8.18708 17.7944 10.6967 17.7436 13.1929C17.7337 13.6792 17.4867 14.1303 17.0792 14.3958C15.9106 15.1571 14.8115 15.5994 13.75 16.0417L12.9167 14.375M5.83332 13.5417C5.83332 13.5417 7.91665 14.5833 9.99999 14.5833C12.0833 14.5833 14.1667 13.5417 14.1667 13.5417" stroke="#E9E9EA" stroke-width="1.5" stroke-linecap="round" stroke-linejoin="round"/>
<path d="M7.39591 12.0833C8.1438 12.0833 8.75008 11.3838 8.75008 10.5208C8.75008 9.65787 8.1438 8.95831 7.39591 8.95831C6.64803 8.95831 6.04175 9.65787 6.04175 10.5208C6.04175 11.3838 6.64803 12.0833 7.39591 12.0833Z" fill="#E9E9EA"/>
<path d="M12.6042 12.0833C13.3521 12.0833 13.9583 11.3838 13.9583 10.5208C13.9583 9.65787 13.3521 8.95831 12.6042 8.95831C11.8563 8.95831 11.25 9.65787 11.25 10.5208C11.25 11.3838 11.8563 12.0833 12.6042 12.0833Z" fill="#E9E9EA"/>
</svg>
