<svg width="20" height="20" viewBox="0 0 20 20" fill="none" xmlns="http://www.w3.org/2000/svg">
<path d="M7.74303 17.5V15.3673L7.77109 13.8516C7.8048 13.3801 7.9885 12.9357 8.29073 12.5917C8.29515 12.5866 8.29961 12.5816 8.30409 12.5766C8.31576 12.5636 8.30807 12.5426 8.29073 12.5404C6.27112 12.2883 4.16692 11.4356 4.16692 7.72291C4.15376 6.80851 4.45209 5.92207 5.00348 5.22679C5.02277 5.20248 5.04236 5.17838 5.06227 5.15454C5.08818 5.1235 5.09666 5.08143 5.08479 5.04278C5.08406 5.04044 5.08335 5.03809 5.08263 5.03574C5.06917 4.99158 5.05654 4.94722 5.04474 4.90268C4.84205 4.13728 4.88563 3.31969 5.1709 2.58182C5.173 2.57637 5.17512 2.57093 5.17726 2.56548C5.18791 2.53833 5.21026 2.51757 5.23899 2.51244C5.41808 2.48051 6.14181 2.43778 7.52732 3.39455C7.57045 3.42433 7.6142 3.45508 7.65861 3.48682C7.69068 3.50973 7.73145 3.51676 7.76937 3.50597L7.77295 3.50494C7.84733 3.4838 7.92191 3.46374 7.99665 3.44475C9.31367 3.11022 10.686 3.11022 12.003 3.44475C12.0739 3.46275 12.1446 3.48173 12.2152 3.50166L12.2198 3.50297C12.2643 3.5156 12.3123 3.50735 12.35 3.48044C12.3913 3.45095 12.4321 3.42233 12.4723 3.39455C13.8546 2.4398 14.5743 2.48033 14.7543 2.51224C14.7835 2.51743 14.8063 2.53857 14.8173 2.56622C14.8188 2.56978 14.8201 2.57333 14.8215 2.57688C15.1116 3.31509 15.1577 4.13512 14.9548 4.90268C14.9428 4.94843 14.9298 4.994 14.9159 5.03936C14.9034 5.08015 14.9124 5.12452 14.9397 5.15729L14.9423 5.16038C14.9605 5.18231 14.9785 5.20445 14.9962 5.22679C15.5476 5.92207 15.8459 6.80851 15.8328 7.72291C15.8328 11.4558 13.7136 12.2863 11.6843 12.5125C11.6726 12.5138 11.6673 12.5278 11.6753 12.5366C11.6783 12.5399 11.6813 12.5432 11.6843 12.5466C11.8891 12.7747 12.0479 13.0453 12.1508 13.3419C12.2583 13.652 12.302 13.9831 12.2791 14.3128V17.5" stroke="#A3A3A5" stroke-width="1.5" stroke-linecap="round" stroke-linejoin="round"/>
<path d="M3.3335 14.1666C3.64112 14.2102 3.93482 14.3235 4.19237 14.4979C4.44991 14.6723 4.66455 14.9031 4.82 15.1731C4.95209 15.4135 5.13017 15.6253 5.34403 15.7964C5.55789 15.9675 5.80332 16.0945 6.06624 16.1702C6.32915 16.246 6.60436 16.2688 6.8761 16.2375C7.14783 16.2062 7.41073 16.1214 7.64971 15.9879" stroke="#A3A3A5" stroke-width="1.5" stroke-linecap="round" stroke-linejoin="round"/>
</svg>
