<svg width="20" height="20" viewBox="0 0 20 20" fill="none" xmlns="http://www.w3.org/2000/svg">
<path d="M2.40349 9.18043C2.40349 9.18043 9.22203 6.39064 11.5868 5.40835C12.4933 5.01543 15.5676 3.75804 15.5676 3.75804C15.5676 3.75804 16.9864 3.20804 16.8682 4.54387C16.8287 5.09398 16.5134 7.01929 16.1981 9.10179C15.7252 12.0488 15.2128 15.2706 15.2128 15.2706C15.2128 15.2706 15.134 16.1744 14.464 16.3316C13.7939 16.4888 12.6904 15.7815 12.4933 15.6243C12.3357 15.5064 9.53734 13.7382 8.51265 12.8739C8.23672 12.6381 7.9214 12.1666 8.55203 11.6165C9.97088 10.3199 11.6657 8.70887 12.6904 7.68731C13.1633 7.21575 13.6363 6.11554 11.6657 7.45148C8.86734 9.37679 6.10838 11.1843 6.10838 11.1843C6.10838 11.1843 5.47786 11.5772 4.29547 11.2236C3.11307 10.8699 1.73359 10.3985 1.73359 10.3985C1.73359 10.3985 0.787758 9.80898 2.4037 9.18043H2.40349Z" stroke="#A3A3A5" stroke-width="1.5"/>
</svg>
